<svg width="24" height="25" viewBox="0 0 24 25" fill="none" xmlns="http://www.w3.org/2000/svg">
<path d="M5 19.5125H11.9875V21.4875H5C4.45334 21.4875 3.98568 21.293 3.59634 20.9037C3.207 20.5143 3.0125 20.0467 3.0125 19.5V5.5C3.0125 4.95334 3.207 4.48568 3.59634 4.09634C3.98568 3.707 4.45334 3.5125 5 3.5125H11.9875V5.4875H5H4.9875V5.5V19.5V19.5125H5ZM17.175 13.4875H9.0125V11.5125H17.175H17.2052L17.1838 11.4912L14.6424 8.94977L16.0002 7.51792L20.9823 12.5L16.0002 17.4821L14.6424 16.0502L17.1838 13.5088L17.2052 13.4875H17.175Z" fill="#8C8C8C" stroke="#8C8C8C" stroke-width="0.025"/>
</svg>
